<svg xmlns="http://www.w3.org/2000/svg" xmlns:xlink="http://www.w3.org/1999/xlink" viewBox="0 0 1440 160">
  <defs>
    <path id="a" fill="#5964e0" d="M0 0h1440v160H100A100 100 0 0 1 0 60V0Z"/>
  </defs>
  <defs>
    <clipPath id="b">
      <use xlink:href="#a" transform="translate(0 .456)"/>
    </clipPath>
  </defs>
  <use xlink:href="#a"/>
  <g fill="#fff" clip-path="url(#b)" transform="translate(0 -.456)">
    <path d="M1163.85-204.958c21.126-23.957 60.32-15.621 69.868 14.86l114.061 364.13c9.377 29.929-16.968 58.877-47.648 52.352l-366.434-77.932c-30.68-6.525-42.965-43.69-22.22-67.212ZM254.532-322.906c-3.131-31.795 29.69-54.799 58.51-41.007l344.272 164.769c28.298 13.54 31.525 52.559 5.832 70.566L356.286 86.486c-25.692 18.007-61.268 1.66-64.34-29.56Zm-326 395c-3.131-31.795 29.69-54.799 58.51-41.007l344.272 164.769c28.298 13.54 31.525 52.559 5.832 70.566L30.286 481.486c-25.692 18.007-61.268 1.66-64.34-29.56Z" opacity=".081"/>
  </g>
</svg>