<svg xmlns="http://www.w3.org/2000/svg" viewBox="0 0 23.963 17.843">
  <path fill="#fff" d="m16.513 17.843-1.178-6.05a.4.4 0 0 0-.025-.083l2.107 1.656v3.2a.42.42 0 0 0 .415.426h.829a.42.42 0 0 1 .415.426v.427Zm-2.074 0L13.361 12.3h1.228l1.078 5.54Zm-7.535 0-1.514-3.5v-.913a8.639 8.639 0 0 0 1.848-1.936l1.5.28-1.59 1.961a.435.435 0 0 0-.075.408L7.9 16.7a.416.416 0 0 0 .393.292h.83a.421.421 0 0 1 .415.426v.427Zm-5.321 0-.73-3.757L2.014 12.1a.437.437 0 0 0 .059-.22V8.82a4.046 4.046 0 0 1 .932-2.591 3.67 3.67 0 0 1 .3-.318h.014V5.9c.032-.031.065-.061.1-.09a3.814 3.814 0 0 1 2.916-.949l1.921.2h2.129a6.557 6.557 0 0 0 .531 2.207v.008l.009.021c.028.065.059.13.093.2a6.459 6.459 0 0 0 1.818 2.271l2.149 1.688a.4.4 0 0 0-.057 0h-3.28l-3.966-.746a6.206 6.206 0 0 0 .608-2.136l-.823-.105a5.353 5.353 0 0 1-.678 2.153l-.1.182a7.784 7.784 0 0 1-1.957 2.063 7.585 7.585 0 0 1-2.332 1.15l-.027.008a.427.427 0 0 0-.293.493l.415 2.13a.417.417 0 0 0 .406.343h.83a.421.421 0 0 1 .415.426v.427Zm14.7-6.439 2.725-4.2a.957.957 0 0 1 .8-.441H23.1l-.154.634a.416.416 0 0 1-.334.316l-1.586.273a1.242 1.242 0 0 0-.846.574l-2.462 3.975Zm-2.348-1.846 3.222-4.3a1.541 1.541 0 0 1 1.227-.62h1.755l.711 1.278h-1.036a1.777 1.777 0 0 0-1.492.821l-2.7 4.154ZM11.793 7.18l4.287-4.405a2.273 2.273 0 0 1 1.641-.7h.722a1.313 1.313 0 0 0 .837 1.513l.345.118.041.074h-1.283a2.365 2.365 0 0 0-1.884.953l-3.223 4.3a5.594 5.594 0 0 1-1.483-1.853ZM11.2 4.818l3.888-3.662a2.851 2.851 0 0 1 1.961-.784h3.075a1.234 1.234 0 0 1 1.112.706l.071.146h-.921l-.307-.105a1.242 1.242 0 0 0-1.011.094l-.019.012H17.72a3.083 3.083 0 0 0-2.227.948l-4.042 4.153a5.678 5.678 0 0 1-.251-1.508Zm10.6 1.093-1.535-2.768a.42.42 0 0 0-.229-.193l-.5-.17a.454.454 0 0 1-.286-.536.449.449 0 0 1 .214-.285.428.428 0 0 1 .349-.032l.371.127a.406.406 0 0 0 .13.023h1.437l.706 1.088a.41.41 0 0 0 .1.1l1.4 1.083-.607 1.56Zm-19.939 0A1.892 1.892 0 0 1 0 3.993a1.892 1.892 0 0 1 1.866-1.917h5.67a2.369 2.369 0 0 0 1.264-.37l.436.725a3.18 3.18 0 0 1-1.7.5h-5.67a1.066 1.066 0 0 0 0 2.13h.623v.852ZM11.143 0a2.108 2.108 0 0 1-1.552 1.595A2.11 2.11 0 0 1 11.143 0Z"/>
</svg>