<svg xmlns="http://www.w3.org/2000/svg" viewBox="0 0 27.783 14.844">
  <path fill="#fff" d="M25.088 14.414a1.534 1.534 0 0 1-.429-1.133 1.563 1.563 0 1 1 3.125 0 1.6 1.6 0 0 1-2.7 1.133Zm-11.342-.229a4.656 4.656 0 0 1-1.695-1.807 5.462 5.462 0 0 1-.616-2.612 5.464 5.464 0 0 1 .616-2.613A4.751 4.751 0 0 1 17.9 5a4.578 4.578 0 0 1 1.406.854V0h2.813v14.648h-2.656l-.069-1.055a4.387 4.387 0 0 1-1.43.923 4.763 4.763 0 0 1-1.772.327 4.623 4.623 0 0 1-2.446-.658Zm1.3-6.3a2.661 2.661 0 0 0-.7 1.885 2.666 2.666 0 0 0 .7 1.885 2.477 2.477 0 0 0 3.554 0 2.663 2.663 0 0 0 .7-1.885 2.658 2.658 0 0 0-.7-1.885 2.477 2.477 0 0 0-3.554 0Zm-12.4 6.3A4.943 4.943 0 0 1 .7 12.369 5 5 0 0 1 0 9.737a5.018 5.018 0 0 1 .673-2.593 4.923 4.923 0 0 1 1.841-1.8 5.323 5.323 0 0 1 2.651-.66 5.236 5.236 0 0 1 2.623.654A4.847 4.847 0 0 1 9.6 7.139a5.132 5.132 0 0 1 .664 2.617v.844H2.646a2.578 2.578 0 0 0 .972 1.319 2.778 2.778 0 0 0 1.655.508 3.839 3.839 0 0 0 1.685-.327 4.881 4.881 0 0 0 1.216-.844l1.7 2.03a6.864 6.864 0 0 1-2.241 1.221 7.452 7.452 0 0 1-2.124.332 6.037 6.037 0 0 1-2.863-.654Zm.806-6.519a2.508 2.508 0 0 0-.864 1.377h4.785a2.515 2.515 0 0 0-.84-1.386 2.315 2.315 0 0 0-1.523-.529 2.4 2.4 0 0 0-1.558.538Z"/>
</svg>