<svg xmlns="http://www.w3.org/2000/svg" viewBox="0 0 26.533 17.022">
  <path fill="#fff" d="M25.5 16.834a.639.639 0 0 1-.175-.452.6.6 0 0 1 .173-.437.583.583 0 0 1 .427-.173.6.6 0 0 1 .61.61.634.634 0 0 1-.178.452.574.574 0 0 1-.432.188.562.562 0 0 1-.425-.188Zm-19.223-.547a2.937 2.937 0 0 1-.618-1.947 2.894 2.894 0 0 1 .62-1.931 2.09 2.09 0 0 1 1.671-.731 2.083 2.083 0 0 1 1.67.733 2.9 2.9 0 0 1 .62 1.929 2.933 2.933 0 0 1-.62 1.943 2.075 2.075 0 0 1-1.67.738 2.08 2.08 0 0 1-1.673-.734Zm.574-3.387a2.494 2.494 0 0 0-.391 1.453 2.494 2.494 0 0 0 .4 1.429 1.319 1.319 0 0 0 2.188-.009 2.469 2.469 0 0 0 .4-1.42 2.473 2.473 0 0 0-.4-1.444 1.27 1.27 0 0 0-1.1-.568 1.267 1.267 0 0 0-1.097.559Zm-6.71 3.84.147-.659a3.171 3.171 0 0 0 1.373.3 2 2 0 0 0 1.032-.237.71.71 0 0 0 .4-.627.666.666 0 0 0-.2-.472 2.387 2.387 0 0 0-.931-.432q-.591-.181-.869-.271a1.823 1.823 0 0 1-.517-.266 1.185 1.185 0 0 1-.364-.419 1.245 1.245 0 0 1 .452-1.592 2.7 2.7 0 0 1 1.528-.386 5.11 5.11 0 0 1 1.367.211l-.171.639a3.885 3.885 0 0 0-1.206-.21 1.967 1.967 0 0 0-.981.208.623.623 0 0 0-.362.554.521.521 0 0 0 .167.383 1.619 1.619 0 0 0 .663.305l.728.211a3.191 3.191 0 0 1 .82.339 1.345 1.345 0 0 1 .476.479 1.3 1.3 0 0 1 .159.652 1.324 1.324 0 0 1-.61 1.15 2.667 2.667 0 0 1-1.553.423 3.683 3.683 0 0 1-1.548-.285ZM19.1 15.571v-3.11h-.976V11.8h.976v-1.39h.743v1.39h1.728v.659h-1.727v2.911a1.129 1.129 0 0 0 .2.72.676.676 0 0 0 .557.257 2.958 2.958 0 0 0 1.236-.278l.131.59a3.594 3.594 0 0 1-1.508.352q-1.36.001-1.36-1.44Zm-5.78 1.318v-4.428h-1.279V11.8h1.279v-.171a2.13 2.13 0 0 1 .332-1.362 1.438 1.438 0 0 1 1.148-.389 3.992 3.992 0 0 1 1.172.2l-.2.62a3.544 3.544 0 0 0-.972-.157.626.626 0 0 0-.563.232 1.892 1.892 0 0 0-.154.935v.092h1.709v.659h-1.71v4.429ZM6.433 6.619A1.361 1.361 0 0 1 6 5.582a1.423 1.423 0 0 1 .152-.665 1.329 1.329 0 0 1 .448-.485 2.362 2.362 0 0 1 .713-.312 5.361 5.361 0 0 1 1-.159l.855-.067v-.246c0-.868-.41-1.309-1.221-1.309a2.83 2.83 0 0 0-.73.125 3.78 3.78 0 0 0-.76.3l-.2-.546a4.31 4.31 0 0 1 1.934-.533c1.154 0 1.739.619 1.739 1.84v2.183a5.035 5.035 0 0 0 .126 1.182h-.764a2.957 2.957 0 0 1-.092-.82 2.043 2.043 0 0 1-1.768.952 1.428 1.428 0 0 1-.999-.403Zm1.313-1.988a1.605 1.605 0 0 0-.663.3.723.723 0 0 0-.281.6.7.7 0 0 0 .238.552.9.9 0 0 0 .611.21 1.545 1.545 0 0 0 .806-.242 2.38 2.38 0 0 0 .7-.667v-.925c-.692.063-1.157.119-1.411.172Zm10.422 1.612a3.576 3.576 0 0 1-.508-1.975 3.1 3.1 0 0 1 .53-1.853 1.655 1.655 0 0 1 1.4-.734 1.852 1.852 0 0 1 1.548.78V0h.762v6.89h-.761v-.732a1.824 1.824 0 0 1-.672.62 1.87 1.87 0 0 1-.92.243 1.583 1.583 0 0 1-1.379-.778Zm.66-3.345a2.536 2.536 0 0 0-.365 1.414 2.8 2.8 0 0 0 .344 1.453 1.061 1.061 0 0 0 .945.573 1.229 1.229 0 0 0 .58-.157 1.859 1.859 0 0 0 .552-.468 1.182 1.182 0 0 0 .259-.382V3.217a1.572 1.572 0 0 0-1.319-.878 1.139 1.139 0 0 0-.996.561ZM12.544 6.89V1.8h.756v1.032a1.8 1.8 0 0 1 1.581-1.153 2.567 2.567 0 0 1 1.119.26l-.308.733a2.229 2.229 0 0 0-.869-.22 1.268 1.268 0 0 0-.659.193 2.1 2.1 0 0 0-.593.552 1.988 1.988 0 0 0-.271.4V6.89Zm-9.385 0V3.628a1.728 1.728 0 0 0-.217-.984.779.779 0 0 0-.681-.305 2.19 2.19 0 0 0-1.5.868V6.89H0V0h.761v2.549a2.383 2.383 0 0 1 1.729-.87q1.431 0 1.431 1.729V6.89Z"/>
</svg>