<svg xmlns="http://www.w3.org/2000/svg" viewBox="0 0 14 27">
  <path fill="#fff" d="M7.024 15.082C10.778 15.082 14 11.7 14 7.567 14 3.422 10.872 0 7.024 0S0 3.422 0 7.567a7.668 7.668 0 0 0 1.674 4.825 8.273 8.273 0 0 1 2.614-1.566 4.553 4.553 0 0 1-1.351-3.259 4.24 4.24 0 0 1 4.087-4.35 4.2 4.2 0 0 1 4.038 4.351 4.2 4.2 0 0 1-4.038 4.351A7.377 7.377 0 0 0 0 19.433C0 23.578 3.177 27 7.024 27S14 23.578 14 19.433a7.667 7.667 0 0 0-1.674-4.825 8.275 8.275 0 0 1-2.614 1.566 4.553 4.553 0 0 1 1.351 3.259 4.249 4.249 0 0 1-4.038 4.4 4.288 4.288 0 0 1-4.087-4.4 4.238 4.238 0 0 1 4.086-4.351Z"/>
</svg>