<svg xmlns="http://www.w3.org/2000/svg" viewBox="0 0 27 27">
  <path fill="#fff" d="M9.773 11.111 0 13.5l9.773 2.388a4.414 4.414 0 0 1 0-4.777Zm3.727-.459a2.848 2.848 0 1 0 2.852 2.848 2.851 2.851 0 0 0-2.852-2.848Zm0 7.275a4.4 4.4 0 0 1-2.389-.7L13.5 27l2.111-8.655.277-1.118a4.4 4.4 0 0 1-2.388.7Zm3.727-6.816a4.4 4.4 0 0 1 .7 2.389 4.4 4.4 0 0 1-.7 2.388l1.1-.268 8.674-2.12ZM13.5 0l-2.389 9.773a4.414 4.414 0 0 1 4.777 0Zm3.545 7.838.416 1.7 1.739.425 3.205-5.261ZM9.54 17.461l-1.734-.424-3.216 5.281 5.369-3.141Zm9.649-.423-1.729.422-.42 1.719 5.364 3.139ZM4.59 4.702l3.206 5.264 1.744-.427.415-1.7Z"/>
</svg>