<svg xmlns="http://www.w3.org/2000/svg" viewBox="0 0 27 17">
  <path fill="#fff" d="M.707 16.582a.927.927 0 0 1 .1-.493.478.478 0 0 1 .417-.145h.046a.658.658 0 0 0 .28-.052q.108-.053.211-.343L2 14.875a1.042 1.042 0 0 0 .08-.36 1.7 1.7 0 0 0-.04-.256q-.039-.2-.131-.5L.97 10.846a6.534 6.534 0 0 0-.257-.7.887.887 0 0 0-.268-.372.541.541 0 0 0-.16-.074c-.053-.02-.1-.035-.142-.05a.325.325 0 0 1-.1-.059A.149.149 0 0 1 0 9.475q0-.093.046-.116a.352.352 0 0 1 .148-.023c.06 0 .178.008.354.023s.407.023.7.023.509-.008.661-.023.244-.023.275-.023c.091 0 .137.043.137.128a.159.159 0 0 1-.086.158 1.278 1.278 0 0 1-.188.069 1.718 1.718 0 0 0-.189.064.136.136 0 0 0-.086.14c0 .046.008.131.023.256a2.309 2.309 0 0 0 .113.453l.64 2.066c.031.094.06.139.091.139s.053-.046.092-.139l.7-1.985a2.691 2.691 0 0 0 .114-.429 2.012 2.012 0 0 0 .034-.244.23.23 0 0 0-.1-.22.841.841 0 0 0-.231-.092 1.4 1.4 0 0 1-.217-.07.163.163 0 0 1-.1-.168c0-.061.01-.1.029-.11a.225.225 0 0 1 .108-.018c.061 0 .157.006.285.018s.3.017.514.017c.183 0 .335-.005.457-.017s.212-.018.274-.018.1.008.1.023a.328.328 0 0 1 .012.116c0 .085-.025.134-.075.146s-.11.029-.183.052a.742.742 0 0 0-.245.15 1.025 1.025 0 0 0-.251.442l-.93 2.557q-.537 1.451-.794 2.317t-.348 1.143q-.057.209-.1.343a.686.686 0 0 1-.12.22.4.4 0 0 1-.194.122 1.2 1.2 0 0 1-.329.035q-.433 0-.434-.418Zm5.258-2.1a1.879 1.879 0 0 1-.656-.552 2.669 2.669 0 0 1-.423-.872 4.151 4.151 0 0 1-.148-1.148 3.8 3.8 0 0 1 .162-1.151 2.621 2.621 0 0 1 .463-.877 2.094 2.094 0 0 1 .7-.557 2 2 0 0 1 .885-.2 1.912 1.912 0 0 1 .753.146 1.751 1.751 0 0 1 .582.388 1.718 1.718 0 0 1 .371.57 1.835 1.835 0 0 1 .131.7.2.2 0 0 1-.091.2.669.669 0 0 1-.3.049H5.88c-.063 0-.1.011-.114.034a.323.323 0 0 0-.023.151v.278a2.884 2.884 0 0 0 .452 1.707 1.384 1.384 0 0 0 1.17.627 1.365 1.365 0 0 0 .554-.1 1.67 1.67 0 0 0 .388-.234 1.711 1.711 0 0 0 .24-.231c.056-.068.1-.1.119-.1.062 0 .092.041.092.128a.686.686 0 0 1-.137.338 1.811 1.811 0 0 1-.393.411 2.663 2.663 0 0 1-.611.354 2.026 2.026 0 0 1-.8.152 1.883 1.883 0 0 1-.852-.207Zm.291-4.778a1.551 1.551 0 0 0-.388.789l-.033.185v.023c0 .069.046.1.136.1h.743a1.941 1.941 0 0 0 .815-.128.517.517 0 0 0 .256-.511.762.762 0 0 0-.234-.534.8.8 0 0 0-.6-.244.936.936 0 0 0-.695.324Zm9.644 4.759a2.138 2.138 0 0 1-.726-.569 2.665 2.665 0 0 1-.467-.877 3.654 3.654 0 0 1-.166-1.126 3.574 3.574 0 0 1 .171-1.138 2.494 2.494 0 0 1 .491-.871 2.22 2.22 0 0 1 .764-.557 2.439 2.439 0 0 1 .994-.2 2.244 2.244 0 0 1 .959.2 2.1 2.1 0 0 1 .735.568 2.673 2.673 0 0 1 .47.878 3.728 3.728 0 0 1 .165 1.138 3.566 3.566 0 0 1-.171 1.125 2.555 2.555 0 0 1-.485.872 2.123 2.123 0 0 1-.77.556 2.589 2.589 0 0 1-1.029.2 2.138 2.138 0 0 1-.935-.199Zm.012-4.419a3.313 3.313 0 0 0-.356 1.684 4.021 4.021 0 0 0 .382 1.922 1.14 1.14 0 0 0 1 .691 1.109 1.109 0 0 0 .987-.6 3.286 3.286 0 0 0 .359-1.678 4.023 4.023 0 0 0-.382-1.921 1.131 1.131 0 0 0-.987-.691 1.115 1.115 0 0 0-.999.593Zm8.281 4.47a4.287 4.287 0 0 1-.074-.2L23.062 11.5l-1.085 2.833a.907.907 0 0 1-.085.191.139.139 0 0 1-.131.064.127.127 0 0 1-.124-.069 1.86 1.86 0 0 1-.08-.2l-1.5-4.17a.8.8 0 0 0-.189-.307 1 1 0 0 0-.211-.15 5.39 5.39 0 0 0-.177-.087.129.129 0 0 1-.074-.128.2.2 0 0 1 .022-.117.191.191 0 0 1 .115-.023c.074 0 .23.008.5.029s.622.03 1.073.03h2a4.315 4.315 0 0 0 .621-.036 2.6 2.6 0 0 1 .326-.034c.13 0 .194.047.194.139a.133.133 0 0 1-.109.13 2.12 2.12 0 0 1-.234.058 1.1 1.1 0 0 0-.233.069.171.171 0 0 0-.109.174 1.49 1.49 0 0 0 .039.274 3.9 3.9 0 0 0 .132.435l.823 2.288c.022.055.053.082.091.082s.061-.043.092-.128l.685-2.161a2.622 2.622 0 0 0 .119-.428 1.6 1.6 0 0 0 .031-.258.252.252 0 0 0-.109-.238.83.83 0 0 0-.233-.093l-.061-.014h-.023l-.151-.033a.121.121 0 0 1-.108-.128.189.189 0 0 1 .029-.122.156.156 0 0 1 .109-.029 3.034 3.034 0 0 1 .324.023 4.07 4.07 0 0 0 .487.023 4.845 4.845 0 0 0 .547-.023c.154-.016.233-.023.274-.023a.188.188 0 0 1 .114.023.2.2 0 0 1 .023.117c0 .108-.034.163-.1.163a.8.8 0 0 0-.264.058.563.563 0 0 0-.307.278 4.554 4.554 0 0 0-.285.652l-1.3 3.7c-.06.169-.133.255-.217.255a.128.128 0 0 1-.133-.075Zm-2.944-4.76a.315.315 0 0 0-.178.279 1.086 1.086 0 0 0 .069.382l.9 2.5q.032.081.068.081c.022 0 .044-.033.068-.1l.48-1.346c.037-.116.074-.225.108-.326a.941.941 0 0 0 .052-.313.709.709 0 0 0-.034-.167c-.024-.086-.056-.18-.085-.268s-.073-.192-.115-.283a1.275 1.275 0 0 0-.131-.234.846.846 0 0 0-.718-.3.952.952 0 0 0-.48.095Zm-7.747 4.691a4.023 4.023 0 0 0-.536-.034 3.751 3.751 0 0 0-.531.034 2.726 2.726 0 0 1-.393.035c-.138 0-.206-.062-.206-.185s.039-.163.114-.163a.914.914 0 0 0 .309-.069.287.287 0 0 0 .193-.157.845.845 0 0 0 .034-.273V7.594a.29.29 0 0 0-.074-.22.484.484 0 0 0-.171-.1 2.028 2.028 0 0 1-.172-.07.11.11 0 0 1-.074-.1c0-.085.051-.141.154-.168a3.267 3.267 0 0 0 .36-.122 2.753 2.753 0 0 0 .588-.284 1.063 1.063 0 0 1 .212-.127V5.249a4.279 4.279 0 0 0-.166-1.359.656.656 0 0 0-.679-.464.764.764 0 0 0-.628.3 1.484 1.484 0 0 0-.239.929v2.532a1.29 1.29 0 0 0 .029.314.259.259 0 0 0 .131.162.549.549 0 0 0 .176.058 1.147 1.147 0 0 1 .148.029.262.262 0 0 1 .1.052.146.146 0 0 1 .04.116c0 .124-.068.186-.206.186a2.416 2.416 0 0 1-.4-.04 2.983 2.983 0 0 0-.509-.041q-.128 0-.239.008v5.532c0 .256.072.418.217.488a.484.484 0 0 0 .183.052c.061 0 .116.01.166.017a.232.232 0 0 1 .12.052.188.188 0 0 1 .046.145c0 .109-.076.163-.229.163a3.247 3.247 0 0 1-.445-.035 4.046 4.046 0 0 0-.537-.034 3.751 3.751 0 0 0-.531.034 2.726 2.726 0 0 1-.393.035c-.137 0-.205-.062-.205-.185s.038-.163.113-.163a.91.91 0 0 0 .309-.069.292.292 0 0 0 .194-.157.871.871 0 0 0 .034-.273V7.594a.29.29 0 0 0-.075-.22.484.484 0 0 0-.171-.1 1.872 1.872 0 0 1-.171-.07.111.111 0 0 1-.075-.1c0-.085.051-.141.154-.168a3.2 3.2 0 0 0 .36-.122 2.731 2.731 0 0 0 .588-.284q.069-.048.12-.079V5.249a4 4 0 0 0-.176-1.364.668.668 0 0 0-.679-.459.773.773 0 0 0-.639.3 1.478 1.478 0 0 0-.24.929v2.532a1.092 1.092 0 0 0 .034.314.285.285 0 0 0 .138.162.549.549 0 0 0 .176.058 1.147 1.147 0 0 1 .149.029.262.262 0 0 1 .1.052.146.146 0 0 1 .04.116c0 .124-.068.186-.206.186a2.324 2.324 0 0 1-.4-.04 2.945 2.945 0 0 0-.513-.041 2.653 2.653 0 0 0-.5.041 1.79 1.79 0 0 1-.33.04c-.122 0-.183-.066-.183-.2a.158.158 0 0 1 .028-.11.147.147 0 0 1 .075-.041c.031-.008.067-.016.108-.023a.493.493 0 0 0 .131-.047.277.277 0 0 0 .16-.168 1.208 1.208 0 0 0 .034-.331V4.448a.749.749 0 0 0-.08-.412A.318.318 0 0 0 7.7 3.9c-.061-.015-.118-.027-.172-.035s-.079-.046-.079-.116a.232.232 0 0 1 .166-.22A3.889 3.889 0 0 0 8 3.333a2.216 2.216 0 0 0 .329-.233c.087-.077.159-.145.217-.2s.1-.1.142-.139a.165.165 0 0 1 .092-.052q.034 0 .057.07a.559.559 0 0 1 .023.174v.488c0 .1.011.151.034.151s.041-.023.079-.07l.114-.15A1.56 1.56 0 0 1 9.6 2.9a1.228 1.228 0 0 1 .61-.163 1.132 1.132 0 0 1 .761.263 2.426 2.426 0 0 1 .526.661h.057a1.632 1.632 0 0 1 1.4-.917 1.149 1.149 0 0 1 .948.464 1.953 1.953 0 0 1 .365 1.243v2.74a1.092 1.092 0 0 0 .033.309.285.285 0 0 0 .138.162.549.549 0 0 0 .176.058 1.147 1.147 0 0 1 .149.029.262.262 0 0 1 .1.052.146.146 0 0 1 .04.116c0 .124-.069.186-.206.186a2.324 2.324 0 0 1-.4-.04 2.949 2.949 0 0 0-.514-.041 3.109 3.109 0 0 0-.342.017v5.522c0 .256.072.418.217.488a.484.484 0 0 0 .183.052c.061 0 .116.01.166.017a.232.232 0 0 1 .12.052.188.188 0 0 1 .046.145c0 .109-.076.163-.229.163a3.259 3.259 0 0 1-.439-.033ZM.816 8.029a.992.992 0 0 1-.221-.69 1.686 1.686 0 0 1 .124-.673 1.657 1.657 0 0 1 .366-.527 3.1 3.1 0 0 1 .577-.447 10.8 10.8 0 0 1 .747-.419l.285-.15a.2.2 0 0 0 .108-.1.623.623 0 0 0 .018-.18v-.825a2.368 2.368 0 0 0-.076-.708.345.345 0 0 0-.371-.22.585.585 0 0 0-.468.2 2.343 2.343 0 0 0-.331.574 2.309 2.309 0 0 1-.28.494.585.585 0 0 1-.5.2.216.216 0 0 1-.153-.058.192.192 0 0 1-.062-.15 1.18 1.18 0 0 1 .153-.546 1.8 1.8 0 0 1 .435-.528 2.469 2.469 0 0 1 .662-.394 2.162 2.162 0 0 1 .827-.158 1.65 1.65 0 0 1 .588.086.724.724 0 0 1 .338.257.976.976 0 0 1 .148.418 4.32 4.32 0 0 1 .034.574v2.699a2.383 2.383 0 0 0 .047.557.222.222 0 0 0 .238.187.3.3 0 0 0 .229-.118.281.281 0 0 1 .206-.115c.092 0 .136.057.136.174a.4.4 0 0 1-.1.227 1.948 1.948 0 0 1-.245.261 1.766 1.766 0 0 1-.309.221.631.631 0 0 1-.3.093.669.669 0 0 1-.491-.2 1.517 1.517 0 0 1-.32-.592h-.069l-.24.209a6.259 6.259 0 0 1-.559.436 1.015 1.015 0 0 1-.582.18.754.754 0 0 1-.589-.249ZM2.66 5.494l-.376.185a1.208 1.208 0 0 0-.675 1.161.9.9 0 0 0 .121.51.362.362 0 0 0 .314.175.573.573 0 0 0 .274-.076.875.875 0 0 0 .251-.21 1.125 1.125 0 0 0 .188-.319 1.139 1.139 0 0 0 .075-.42v-.914c0-.095-.019-.14-.059-.14a.267.267 0 0 0-.113.048ZM24.8 6.8v-.483l.046-2.5a1.185 1.185 0 0 0-.023-.261.122.122 0 0 0-.137-.1h-.205c-.138 0-.206-.05-.206-.151a.178.178 0 0 1 .058-.128 1.074 1.074 0 0 1 .159-.128c.068-.046.147-.1.234-.174a2.686 2.686 0 0 0 .292-.279 3.846 3.846 0 0 0 .405-.557c.087-.155.166-.232.234-.232a.09.09 0 0 1 .1.076.936.936 0 0 1 .017.2V2.8a.132.132 0 0 0 .149.151h.856a.208.208 0 0 1 .126.023.136.136 0 0 1 .023.093V3.3a.251.251 0 0 1-.023.128c-.015.023-.058.035-.126.035H25.9c-.091 0-.137.05-.137.151v2.935a2.37 2.37 0 0 0 .1.8.357.357 0 0 0 .359.249.505.505 0 0 0 .223-.047.9.9 0 0 0 .176-.11c.054-.042.1-.079.143-.111a.2.2 0 0 1 .12-.046c.076 0 .114.054.114.162a.421.421 0 0 1-.1.22 1.464 1.464 0 0 1-.28.279 1.768 1.768 0 0 1-.411.238 1.263 1.263 0 0 1-.5.1Q24.8 8.279 24.8 6.8Zm-3.5 1.388A1.781 1.781 0 0 1 20.823 8a.24.24 0 0 1-.123-.15 1.124 1.124 0 0 1-.022-.256v-.421c0-.25.009-.437.022-.56.015-.143.065-.215.149-.215a.123.123 0 0 1 .114.058.682.682 0 0 1 .062.168c.02.073.042.162.069.266a2.055 2.055 0 0 0 .131.355 1 1 0 0 0 .913.708.776.776 0 0 0 .6-.256.972.972 0 0 0 .234-.685.954.954 0 0 0-.074-.389.929.929 0 0 0-.217-.3 2.054 2.054 0 0 0-.348-.256c-.137-.081-.29-.168-.457-.261a5.723 5.723 0 0 1-.5-.3 1.892 1.892 0 0 1-.365-.313 1.136 1.136 0 0 1-.222-.383 1.547 1.547 0 0 1-.074-.5 1.513 1.513 0 0 1 .439-1.144 1.553 1.553 0 0 1 1.124-.424 2.346 2.346 0 0 1 .982.14.464.464 0 0 1 .263.441 3.8 3.8 0 0 1-.034.6c-.022.127-.072.191-.148.191s-.133-.054-.149-.162a1.242 1.242 0 0 0-.159-.407.853.853 0 0 0-.754-.5.733.733 0 0 0-.53.192.654.654 0 0 0-.2.494.634.634 0 0 0 .079.33.937.937 0 0 0 .229.25 2.287 2.287 0 0 0 .36.226l.473.25a2.3 2.3 0 0 1 .822.68 1.613 1.613 0 0 1 .263.946 2.21 2.21 0 0 1-.131.789 1.607 1.607 0 0 1-.371.587 1.645 1.645 0 0 1-.565.365 1.928 1.928 0 0 1-.714.128 2.577 2.577 0 0 1-.702-.089Zm-4.623-.116a2.132 2.132 0 0 1-.726-.57 2.66 2.66 0 0 1-.467-.877A3.654 3.654 0 0 1 15.31 5.5a3.579 3.579 0 0 1 .171-1.139 2.49 2.49 0 0 1 .491-.87 2.222 2.222 0 0 1 .764-.558 2.439 2.439 0 0 1 .994-.2 2.247 2.247 0 0 1 .959.2 2.091 2.091 0 0 1 .735.568 2.646 2.646 0 0 1 .469.877 3.7 3.7 0 0 1 .166 1.139 3.57 3.57 0 0 1-.171 1.125 2.555 2.555 0 0 1-.485.872 2.144 2.144 0 0 1-.77.556 2.592 2.592 0 0 1-1.029.2 2.147 2.147 0 0 1-.935-.193Zm.012-4.419a3.309 3.309 0 0 0-.356 1.683 4.025 4.025 0 0 0 .382 1.922 1.138 1.138 0 0 0 1 .69 1.108 1.108 0 0 0 .988-.6 3.289 3.289 0 0 0 .359-1.678 4.018 4.018 0 0 0-.382-1.921 1.13 1.13 0 0 0-.987-.691 1.113 1.113 0 0 0-1.012.6ZM6.416 8.059a3.882 3.882 0 0 0-.536-.035 3.6 3.6 0 0 0-.531.035 2.727 2.727 0 0 1-.394.035q-.205 0-.205-.186c0-.108.038-.162.114-.162a.888.888 0 0 0 .308-.07.289.289 0 0 0 .194-.157.871.871 0 0 0 .034-.273V1.208a.289.289 0 0 0-.074-.22.475.475 0 0 0-.172-.1L4.983.813a.111.111 0 0 1-.074-.1c0-.086.051-.141.154-.168a3.1 3.1 0 0 0 .36-.127 2.721 2.721 0 0 0 .588-.285A.644.644 0 0 1 6.256 0c.061 0 .1.02.114.059a.454.454 0 0 1 .023.162c0 .1-.006.217-.017.348s-.017.279-.017.441v6.167c0 .255.072.418.217.487a.466.466 0 0 0 .183.053 1.632 1.632 0 0 1 .165.017.228.228 0 0 1 .121.052.191.191 0 0 1 .045.145c0 .109-.076.163-.228.163a3.259 3.259 0 0 1-.446-.035Z"/>
</svg>