<svg xmlns="http://www.w3.org/2000/svg" viewBox="0 0 25 25">
  <path fill="#fff" d="M7.489 21.092a5.253 5.253 0 0 1-1.41.2 5.251 5.251 0 0 1-1.38-.2 3.617 3.617 0 0 0 .922-1.3 3.748 3.748 0 0 0 .452.027 3.794 3.794 0 0 0 1.237-.207V15.46l-3.636-2.072a3.774 3.774 0 0 0-.987 1.371 2.841 2.841 0 0 1-.161-.026 1.789 1.789 0 0 0-.306-.033 3.659 3.659 0 0 0-1.173.213A5.12 5.12 0 0 1 2.471 12.5a5.117 5.117 0 0 1-1.424-2.411 3.709 3.709 0 0 0 1.173.211 1.713 1.713 0 0 0 .306-.036c.052-.009.105-.018.159-.025a3.736 3.736 0 0 0 .988 1.372L7.309 9.54V5.39a3.748 3.748 0 0 0-1.687-.18 3.627 3.627 0 0 0-.932-1.305 5.109 5.109 0 0 1 1.353-.18 5.4 5.4 0 0 1 1.443.2 5.168 5.168 0 0 1 10.031 0 5.411 5.411 0 0 1 1.442-.2 5.117 5.117 0 0 1 1.353.18 3.6 3.6 0 0 0-.932 1.305 3.752 3.752 0 0 0-1.688.18v4.15l3.639 2.075a3.7 3.7 0 0 0 1.008-1.371c.053.006.106.016.158.025a1.638 1.638 0 0 0 .284.033 3.72 3.72 0 0 0 1.167-.211 5.146 5.146 0 0 1-1.42 2.409 5.152 5.152 0 0 1 1.419 2.408 3.693 3.693 0 0 0-1.166-.211 1.638 1.638 0 0 0-.284.033c-.052.009-.105.019-.158.025a3.705 3.705 0 0 0-1.008-1.372l-3.64 2.077v4.15a3.8 3.8 0 0 0 1.688.18 3.608 3.608 0 0 0 .923 1.294 4.929 4.929 0 0 1-2.791.007 5.167 5.167 0 0 1-10.022 0Zm1.372-.6a3.7 3.7 0 0 0 7.278 0L12.5 18.42Zm5.123-2.921 2.225 1.269v-2.534Zm-5.192 1.272 2.225-1.269-2.225-1.268Zm0-8.457v4.228l3.708 2.114 3.708-2.114v-4.228L12.5 8.271Zm8.9 3.382 2.224-1.268-2.225-1.269ZM5.084 12.5l2.225 1.268v-2.537Zm8.9-5.074 2.225 1.268V6.157ZM8.792 8.694l2.225-1.268-2.225-1.269ZM8.861 4.5 12.5 6.58l3.639-2.08a3.7 3.7 0 0 0-7.278 0Zm12.8 15.758a2.186 2.186 0 0 1-.815-3 2.244 2.244 0 0 1 3.039-.8 2.186 2.186 0 0 1 .815 3 2.244 2.244 0 0 1-3.039.806ZM.3 19.458a2.186 2.186 0 0 1 .815-3 2.244 2.244 0 0 1 3.039.8 2.187 2.187 0 0 1-.815 3 2.245 2.245 0 0 1-3.039-.8Zm9.975-6.958a2.225 2.225 0 1 1 2.225 2.2 2.212 2.212 0 0 1-2.225-2.2Zm10.574-4.761a2.186 2.186 0 0 1 .814-3 2.244 2.244 0 0 1 3.039.8 2.187 2.187 0 0 1-.815 3 2.245 2.245 0 0 1-3.039-.8Zm-19.736.8a2.185 2.185 0 0 1-.815-3 2.243 2.243 0 0 1 3.038-.806 2.186 2.186 0 0 1 .815 3 2.244 2.244 0 0 1-3.039.806Z"/>
</svg>